<?xml version="1.0" encoding="UTF-8"?>
<svg width="30px" height="16px" viewBox="0 0 30 16" version="1.1" xmlns="http://www.w3.org/2000/svg" xmlns:xlink="http://www.w3.org/1999/xlink">
    <!-- Generator: Sketch 48.2 (47327) - http://www.bohemiancoding.com/sketch -->
    <title>au</title>
    <desc>Created with Sketch.</desc>
    <defs>
        <rect id="path-1" x="0" y="0" width="30" height="16" rx="8"></rect>
        <rect id="path-3" x="0" y="0" width="30" height="16" rx="8"></rect>
        <filter x="-3.3%" y="-6.2%" width="106.7%" height="112.5%" filterUnits="objectBoundingBox" id="filter-4">
            <feGaussianBlur stdDeviation="1" in="SourceAlpha" result="shadowBlurInner1"></feGaussianBlur>
            <feOffset dx="0" dy="0" in="shadowBlurInner1" result="shadowOffsetInner1"></feOffset>
            <feComposite in="shadowOffsetInner1" in2="SourceAlpha" operator="arithmetic" k2="-1" k3="1" result="shadowInnerInner1"></feComposite>
            <feColorMatrix values="0 0 0 0 0   0 0 0 0 0   0 0 0 0 0  0 0 0 0.2 0" type="matrix" in="shadowInnerInner1"></feColorMatrix>
        </filter>
    </defs>
    <g id="Page-1" stroke="none" stroke-width="1" fill="none" fill-rule="evenodd">
        <g id="au">
            <g id="Shape-+-Shape-+-Shape-+-Rectangle-Mask-Copy">
                <mask id="mask-2" fill="white">
                    <use xlink:href="#path-1"></use>
                </mask>
                <use id="Mask" fill="#FFFFFF" xlink:href="#path-1"></use>
                <g id="au" mask="url(#mask-2)">
                    <polygon id="Shape" fill="#000066" fill-rule="nonzero" points="0 0 30 0 30 16 0 16"></polygon>
                    <path d="M0,0 L0,0.8944 L11.5466177,8 L13,8 L13,7.1056 L1.45338228,0 L0,0 Z M13,0 L13,0.8944 L1.45338228,8 L0,8 L0,7.1056 L11.5466177,0 L13,0 Z" id="Shape" fill="#FFFFFF" fill-rule="nonzero"></path>
                    <path d="M5.41666667,0 L5.41666667,8 L7.58333333,8 L7.58333333,0 L5.41662906,0 L5.41666667,0 Z M0,2.666656 L0,5.333312 L13,5.333312 L13,2.666656 L0,2.666656 Z" id="Shape" fill="#FFFFFF" fill-rule="nonzero"></path>
                    <path d="M0,3.2 L0,4.8 L12.9999248,4.8 L12.9999248,3.2 L0,3.2 Z M5.84997368,0 L5.84997368,8 L7.14995111,8 L7.14995111,0 L5.84997368,0 Z M0,8 L4.33330826,5.333312 L5.30223671,5.333312 L0.96892845,8 L0,8 Z M0,0 L4.33330826,2.666656 L3.36437981,2.666656 L0,0.596256 L0,0 Z M7.69765047,2.666656 L12.0310339,0 L12.9999248,0 L8.66661652,2.666656 L7.69765047,2.666656 Z M13,8 L8.66665413,5.333312 L9.63558258,5.333312 L13,7.403712 L13,8 Z" id="Shape" fill="#CC0000" fill-rule="nonzero"></path>
                    <path d="M8.47033333,11.7569571 L7.18312784,11.8688611 L7.36043447,13.1487832 L6.47030385,12.2121512 L5.5802027,13.1487832 L5.75753883,11.8688611 L4.47033333,11.7569571 L5.58141168,11.0975049 L4.86652358,10.0213689 L6.07461488,10.4788336 L6.47033333,9.24883333 L6.86605179,10.4788041 L8.07414308,10.02131 L7.35931396,11.0974165 M20.3663832,12.6651811 L19.9193698,11.9926034 L20.6749272,12.2786208 L20.922,11.5097 L21.1691152,12.2786632 L21.9245454,11.9926459 L21.477532,12.6652235 L22.172,13.0774923 L21.3674437,13.1474906 L21.4784229,13.9471682 L20.922,13.3620248 L20.3655347,13.9472106 L20.4765138,13.147533 L19.672,13.0775347 M20.3663832,3.26200532 L19.9193698,2.58934284 L20.6749272,2.87536015 L20.922,2.10656667 L21.1691152,2.8752753 L21.9245454,2.58934284 L21.477532,3.2619629 L22.172,3.67418927 L21.3674437,3.74418757 L21.4784229,4.54386516 L20.922,3.95872177 L20.3655347,4.54390758 L20.4765138,3.74423 L19.672,3.67423169 M16.8401714,7.08198572 L16.3931656,6.40946192 L17.1486253,6.69547437 L17.3957364,5.92656667 L17.6428474,6.69547437 L18.3983072,6.40946192 L17.9513438,7.08198572 L18.6458,7.49433236 L17.8412574,7.56432947 L17.9521922,8.36399349 L17.3957364,7.77877518 L16.8392805,8.36399349 L16.9503002,7.56432947 L16.1458,7.49433236 M23.5019961,6.14185168 L23.0540386,5.46919415 L23.8101949,5.75524543 L24.0555151,4.98623333 L24.3038901,5.75524543 L25.057925,5.46919415 L24.6120889,6.14185168 L25.3063,6.55416945 L24.501436,6.62417607 L24.6120889,7.42394866 L24.0555151,6.83873575 L23.4989837,7.42394866 L23.6097214,6.62417607 L22.8063,6.55416945 M22.2599331,9.45878506 L21.7963065,9.74611997 L21.9266247,9.21661876 L21.5100002,8.8649745 L22.0540359,8.82490414 L22.2599779,8.31999969 L22.4659646,8.82490414 L23.0100002,8.86501922 L22.5933311,9.21666348 L22.7235598,9.74616469" id="Shape" fill="#FFFFFF"></path>
                </g>
            </g>
            <g id="Rectangle-5-Copy-4" fill="black" fill-opacity="1">
                <use filter="url(#filter-4)" xlink:href="#path-3"></use>
            </g>
        </g>
    </g>
</svg>