<svg xmlns="http://www.w3.org/2000/svg" width="117" height="112" viewBox="0 0 117 112">
    <g fill="none" fill-rule="evenodd">
        <path fill="#231F20" d="M72.816 24.715c-2.809 0-4.887 2.1-6.353 6.416-1.059 3.123-1.291 5.952-.668 8.18.556 1.993 1.745 3.35 3.437 3.925a4.958 4.958 0 0 0 1.589.265c3.207 0 6.263-3.136 7.976-8.182 2.447-7.208-.79-9.237-3.437-10.135-.916-.31-1.773-.469-2.544-.469m-1.995 20.286c-.7 0-1.398-.116-2.071-.345-2.152-.73-3.714-2.484-4.4-4.941-.704-2.52-.464-5.657.694-9.066 2.125-6.259 5.738-8.602 10.798-6.884 5.035 1.707 6.506 5.758 4.375 12.035-1.955 5.762-5.467 9.2-9.396 9.2"/>
        <path fill="#231F20" d="M68.507 36.971c.062 1.791.67 3.026 1.698 3.38 1.073.36 2.272-.26 3.406-1.629l-5.104-1.75zm2.312 4.982c-.371 0-.737-.06-1.09-.18-1.928-.662-2.91-2.809-2.701-5.896a.747.747 0 0 1 .992-.658l7.047 2.417a.748.748 0 0 1 .38 1.126c-1.376 2.058-3.02 3.191-4.628 3.191zM79.79 35.414a.764.764 0 0 1-.242-.04c-9.365-3.21-11.78-8.814-11.878-9.052a.75.75 0 0 1 1.385-.577c.022.052 2.304 5.236 10.979 8.209a.751.751 0 0 1-.243 1.46M54.85 97.948h30.323l1.901-20.554H52.95l1.9 20.554zm31.007 1.5H54.165a.75.75 0 0 1-.747-.681L51.38 76.714a.754.754 0 0 1 .747-.82h35.77a.753.753 0 0 1 .747.82l-2.039 22.053a.75.75 0 0 1-.747.68z"/>
        <path fill="#231F20" d="M86.437 93.174a.752.752 0 0 1-.225-1.466 53.908 53.908 0 0 0 11.15-4.945 40.26 40.26 0 0 0 .128-3.195c0-18.013-12.122-32.667-27.022-32.667-14.9 0-27.022 14.654-27.022 32.667 0 1.24.058 2.49.175 3.722a53.865 53.865 0 0 0 10.187 4.405.75.75 0 1 1-.449 1.431 55.411 55.411 0 0 1-10.818-4.723.755.755 0 0 1-.375-.575 41.45 41.45 0 0 1-.22-4.26c0-18.84 12.795-34.167 28.522-34.167 15.727 0 28.522 15.327 28.522 34.167 0 1.23-.057 2.48-.168 3.71a.749.749 0 0 1-.363.578 55.37 55.37 0 0 1-11.797 5.285.773.773 0 0 1-.225.033"/>
        <path fill="#231F20" d="M52.344 79.747a.739.739 0 0 1-.312-.068 29.452 29.452 0 0 0-8.792-2.471.751.751 0 0 1-.657-.834c.05-.41.412-.691.834-.656a31.015 31.015 0 0 1 9.24 2.597.75.75 0 1 1-.312 1.432M87.672 79.822a.749.749 0 0 1-.316-1.43 30.987 30.987 0 0 1 9.959-2.735.739.739 0 0 1 .822.67.75.75 0 0 1-.67.822 29.528 29.528 0 0 0-9.48 2.603.74.74 0 0 1-.315.07M55.543 77.393a.75.75 0 0 1-.731-.588c-1.33-6.004-2.084-12.566-2.245-19.506a.75.75 0 0 1 .733-.767h.017a.75.75 0 0 1 .75.732c.156 6.746.919 13.392 2.209 19.217a.75.75 0 0 1-.733.912M84.523 77.393a.75.75 0 0 1-.733-.912c1.34-6.055 2.11-12.966 2.223-19.987a.75.75 0 0 1 .75-.738h.013a.75.75 0 0 1 .737.763c-.116 7.12-.897 14.135-2.259 20.286a.75.75 0 0 1-.73.588M70.033 85.68c-1.311 0-2.377.893-2.377 1.99 0 1.098 1.066 1.99 2.377 1.99 1.31 0 2.377-.892 2.377-1.99 0-1.097-1.066-1.99-2.377-1.99m0 5.48c-2.138 0-3.877-1.565-3.877-3.49 0-1.925 1.739-3.49 3.877-3.49s3.877 1.565 3.877 3.49c0 1.925-1.74 3.49-3.877 3.49M42.696 83.957H14.292a.712.712 0 0 0-.367.109c.322.363.53.813.53 1.316v.075h28.24a.75.75 0 0 0 0-1.5M107.992 84.338c.036-.072.055-.154.1-.221a.74.74 0 0 0-.442-.16h-9.41a.745.745 0 0 0-.243.049c.2.464.277.97.23 1.448.005 0 .008.003.013.003h8.85c.15-.47.447-.871.902-1.12"/>
        <path fill="#231F20" d="M60.898 111.111c-30.634 0-55.556-24.922-55.556-55.556 0-3.892.406-7.779 1.204-11.552a.75.75 0 1 1 1.467.31 54.475 54.475 0 0 0-1.17 11.242c0 29.807 24.248 54.056 54.055 54.056s54.056-24.249 54.056-54.056c0-29.806-24.249-54.055-54.056-54.055-8.684 0-16.976 1.996-24.645 5.932a.75.75 0 1 1-.685-1.334C43.452 2.051 51.974 0 60.898 0c30.634 0 55.556 24.922 55.556 55.555 0 30.634-24.922 55.556-55.556 55.556"/>
        <path fill="#231F20" d="M70.047 74.312a.75.75 0 0 1-.75-.75V61.505a.75.75 0 0 1 1.5 0v12.057a.75.75 0 0 1-.75.75M61.199 74.218a.748.748 0 0 1-.65-.375l-3.17-5.49a.75.75 0 0 1 1.299-.75l3.169 5.49a.75.75 0 0 1-.648 1.125"/>
        <path fill="#231F20" d="M58.557 69.643a.746.746 0 0 1-.65-.375l-.53-.917a.75.75 0 0 1 1.301-.748l.527.915a.75.75 0 0 1-.648 1.125M78.824 74.218a.751.751 0 0 1-.648-1.126l3.169-5.489a.75.75 0 1 1 1.299.748l-3.17 5.493a.75.75 0 0 1-.65.374"/>
        <path fill="#FF4338" d="M24.566 4.654a23.088 23.088 0 0 0-11.512 3.091C2.022 14.106-1.778 28.256 4.582 39.287c4.112 7.132 11.787 11.562 20.03 11.563h.002c4.022 0 8.003-1.069 11.51-3.091a22.946 22.946 0 0 0 9.412-10.293.747.747 0 0 1 .628-.434l10.277-.725-8.531-5.776a.75.75 0 0 1-.326-.69 22.952 22.952 0 0 0-2.988-13.624C40.483 9.085 32.808 4.654 24.566 4.654m.048 47.696h-.002c-8.777-.001-16.95-4.719-21.329-12.313C-3.491 28.289.557 13.219 12.304 6.446a24.598 24.598 0 0 1 12.262-3.292c8.777 0 16.95 4.719 21.329 12.313a24.433 24.433 0 0 1 3.219 14.068l9.966 6.747a.75.75 0 0 1-.368 1.369l-12.005.847a24.43 24.43 0 0 1-9.833 10.56 24.583 24.583 0 0 1-12.26 3.292"/>
        <path fill="#FF4338" d="M14.626 26.16c-.878 0-1.592.715-1.592 1.592 0 .878.714 1.592 1.592 1.592.877 0 1.59-.714 1.59-1.592 0-.877-.713-1.591-1.59-1.591m0 4.683a3.095 3.095 0 0 1-3.092-3.092 3.095 3.095 0 0 1 3.092-3.091 3.095 3.095 0 0 1 3.09 3.09 3.095 3.095 0 0 1-3.09 3.093M24.674 26.16c-.878 0-1.592.715-1.592 1.592 0 .878.714 1.592 1.592 1.592.877 0 1.59-.714 1.59-1.592 0-.877-.713-1.591-1.59-1.591m0 4.683a3.095 3.095 0 0 1-3.092-3.092 3.095 3.095 0 0 1 3.092-3.091 3.095 3.095 0 0 1 3.09 3.09 3.095 3.095 0 0 1-3.09 3.093M34.72 26.16c-.877 0-1.59.715-1.59 1.592 0 .878.713 1.592 1.59 1.592.878 0 1.592-.714 1.592-1.592 0-.877-.714-1.591-1.592-1.591m0 4.683a3.095 3.095 0 0 1-3.09-3.092 3.095 3.095 0 0 1 3.09-3.091 3.095 3.095 0 0 1 3.092 3.09 3.095 3.095 0 0 1-3.092 3.093M47.85 33.725a.749.749 0 0 1-.732-.915c.214-.953.37-1.929.462-2.9a.752.752 0 0 1 1.495.142 25.015 25.015 0 0 1-.495 3.088.748.748 0 0 1-.73.585"/>
        <path fill="#231F20" d="M69.98 57.61a.744.744 0 0 1-.53-.22l-5.777-5.774a.75.75 0 1 1 1.061-1.061l5.245 5.244L75.4 50.38a.749.749 0 1 1 1.06 1.06l-5.95 5.95a.744.744 0 0 1-.53.22"/>
    </g>
</svg>
