<svg xmlns="http://www.w3.org/2000/svg" width="112" height="128" viewBox="0 0 112 128">
    <g fill="none" fill-rule="evenodd">
        <path fill="#231F20" d="M82.728 101.32H35.14a.75.75 0 0 1 0-1.5h47.59a.75.75 0 0 1 0 1.5M58.493 81.864a.75.75 0 0 1-.75-.75v-6.645a.75.75 0 0 1 1.5 0v6.645a.75.75 0 0 1-.75.75M32.093 78.542a.75.75 0 0 1-.75-.75v-60.71h-5.206a.75.75 0 0 1 0-1.5h5.956a.75.75 0 0 1 .75.75v61.46a.75.75 0 0 1-.75.75"/>
        <path fill="#231F20" d="M32.093 63.275a.748.748 0 0 1-.416-.126c-6.74-4.499-11.096-14.274-11.096-24.904 0-8.907 3.04-17.295 8.13-22.441a.75.75 0 1 1 1.067 1.055c-4.82 4.871-7.697 12.865-7.697 21.386 0 10.142 4.093 19.428 10.429 23.656a.75.75 0 0 1-.417 1.374M67.448 90.826a.75.75 0 0 1-.723-.951 26.95 26.95 0 0 0 .979-7.233c0-13.603-10.053-24.67-22.41-24.67a.75.75 0 1 1 0-1.5c13.184 0 23.91 11.74 23.91 26.17 0 2.602-.348 5.17-1.033 7.635a.751.751 0 0 1-.723.549"/>
        <path fill="#231F20" d="M49.704 62.459a.747.747 0 0 1-.53-.22l-4.45-4.448-13.173-13.802a.75.75 0 0 1 1.086-1.035l13.162 13.789 3.905 3.905 2.228-2.228a.749.749 0 1 1 1.06 1.06l-2.758 2.759a.747.747 0 0 1-.53.22M40.651 90.826a.75.75 0 0 1-.499-1.31 39.058 39.058 0 0 1 26.044-9.928c.72 0 1.432.019 2.142.057.413.023.73.375.71.789a.749.749 0 0 1-.79.709 39.118 39.118 0 0 0-2.062-.055 37.557 37.557 0 0 0-25.046 9.548.744.744 0 0 1-.499.19"/>
        <path fill="#231F20" d="M67.376 90.826H38.675a.75.75 0 0 1 0-1.5h28.7a.75.75 0 0 1 0 1.5M50.75 32.806c-3.276 0-5.337 2.375-6.297 7.26-.637 3.235-.49 6.071.423 8.2.816 1.9 2.175 3.09 3.929 3.433.32.063.644.095.965.095 3.435 0 6.366-3.618 7.466-9.216 1.468-7.47-2.01-9.05-4.754-9.589a9.023 9.023 0 0 0-1.731-.183m-.981 20.488c-.417 0-.84-.042-1.254-.123-2.23-.438-4.012-1.97-5.018-4.314-1.033-2.407-1.212-5.547-.518-9.08 1.279-6.497 4.544-9.288 9.792-8.26 5.217 1.024 7.215 4.844 5.937 11.351-1.265 6.431-4.69 10.426-8.94 10.426"/>
        <path fill="#231F20" d="M49.906 50.296a3.77 3.77 0 0 1-.518-.037c-1.245-.18-2.359-1.01-3.055-2.275a.75.75 0 1 1 1.314-.722c.468.849 1.18 1.4 1.955 1.513.721.102 1.477-.183 2.11-.811a.749.749 0 1 1 1.056 1.064c-.836.829-1.836 1.268-2.862 1.268M58.135 42.548a.726.726 0 0 1-.148-.015c-9.71-1.938-12.849-7.173-12.977-7.395a.749.749 0 1 1 1.296-.756c.043.074 3.003 4.89 11.974 6.681a.749.749 0 0 1-.145 1.485M32.093 14.462a.75.75 0 0 1-.747-.682c-.017-.181-.367-4.492 2.939-7.797a.75.75 0 0 1 1.06 1.06c-2.814 2.815-2.508 6.564-2.505 6.6a.75.75 0 0 1-.748.819M31.576 7.694a.75.75 0 0 1-.75-.733c-.003-.14-.068-3.442.526-5.747a.757.757 0 0 1 .914-.54.75.75 0 0 1 .539.915c-.542 2.102-.48 5.306-.48 5.338a.751.751 0 0 1-.732.767h-.017zM29.402 7.694a.75.75 0 0 1-.718-.536c-.03-.101-.737-2.518-.81-6.39a.748.748 0 0 1 .735-.764c.397-.046.757.32.765.735.069 3.652.741 5.969.748 5.992a.75.75 0 0 1-.72.963M27.443 8.094a.749.749 0 0 1-.646-.368c-.063-.106-1.539-2.623-1.939-5.378a.75.75 0 0 1 .634-.85.755.755 0 0 1 .85.634c.36 2.465 1.732 4.807 1.746 4.83a.752.752 0 0 1-.645 1.132M26.713 14.462a.744.744 0 0 1-.53-.22c-1.268-1.267-1.032-4.1-.868-5.272-.576-.44-1.59-1.361-2.222-2.776a.749.749 0 1 1 1.369-.611c.702 1.569 2.039 2.39 2.052 2.398a.754.754 0 0 1 .352.78c-.262 1.417-.318 3.724.377 4.42a.749.749 0 0 1-.53 1.28"/>
        <path fill="#231F20" d="M82.728 80.927a.75.75 0 0 1-.75-.75V42.891c0-1.489-1.212-2.7-2.7-2.7H58.333a.75.75 0 0 1 0-1.5h20.943a4.205 4.205 0 0 1 4.201 4.2v37.286a.75.75 0 0 1-.75.75M72.83 90.826H35.544a4.205 4.205 0 0 1-4.2-4.201V42.89c0-2.316 1.883-4.2 4.2-4.2h8.276a.75.75 0 0 1 0 1.5h-8.276a2.703 2.703 0 0 0-2.7 2.7v43.734a2.704 2.704 0 0 0 2.7 2.7H72.83a.75.75 0 0 1 0 1.5"/>
        <path fill="#231F20" d="M55.571 127.818C24.928 127.818 0 102.888 0 72.247 0 54.63 8.081 38.442 22.17 27.83a.749.749 0 1 1 .902 1.197C9.363 39.354 1.5 55.107 1.5 72.247c0 29.815 24.256 54.07 54.071 54.07 29.814 0 54.07-24.255 54.07-54.07s-24.256-54.071-54.07-54.071c-8.107 0-15.903 1.75-23.17 5.203a.75.75 0 1 1-.643-1.356c7.469-3.548 15.481-5.347 23.813-5.347 30.642 0 55.57 24.929 55.57 55.57 0 30.643-24.928 55.572-55.57 55.572"/>
        <path fill="#231F20" d="M32.079 37.952a.749.749 0 0 1-.377-1.398 6.827 6.827 0 0 1 3.425-.921h9.647a.75.75 0 0 1 0 1.5h-9.647c-.94 0-1.862.248-2.673.717a.733.733 0 0 1-.375.102M74.427 93.87h-39.3a6.85 6.85 0 0 1-6.843-6.84V59.917a.75.75 0 0 1 1.5 0V87.03a5.348 5.348 0 0 0 5.342 5.34h39.301a.75.75 0 0 1 0 1.5M85.774 82.525a.75.75 0 0 1-.75-.75V42.474a5.348 5.348 0 0 0-5.342-5.342H57.9a.75.75 0 0 1 0-1.5h21.783a6.85 6.85 0 0 1 6.842 6.842v39.301a.75.75 0 0 1-.75.75M73.591 113.502H32.094a.75.75 0 0 1 0-1.5H73.59a.75.75 0 0 1 0 1.5M82.728 107.41H32.093a.75.75 0 0 1 0-1.5h50.635a.75.75 0 0 1 0 1.5"/>
        <path fill="#FF4338" d="M78.92 80.927a5.347 5.347 0 0 0-5.34 5.341v2.741a5.348 5.348 0 0 0 5.34 5.342h2.742a5.348 5.348 0 0 0 5.342-5.342v-2.74a5.347 5.347 0 0 0-5.342-5.342H78.92zm2.742 14.924H78.92c-3.772 0-6.841-3.07-6.841-6.842v-2.74a6.848 6.848 0 0 1 6.84-6.842h2.742a6.848 6.848 0 0 1 6.842 6.841v2.741a6.85 6.85 0 0 1-6.842 6.842z"/>
        <path fill="#FF4338" d="M79.49 91.226a.744.744 0 0 1-.53-.22l-2.854-2.854a.75.75 0 1 1 1.06-1.06l2.325 2.323 3.926-3.925a.749.749 0 1 1 1.06 1.06l-4.456 4.456a.744.744 0 0 1-.53.22"/>
    </g>
</svg>
