<svg xmlns="http://www.w3.org/2000/svg" xmlns:xlink="http://www.w3.org/1999/xlink" width="120" height="127" viewBox="0 0 120 127">
    <defs>
        <path id="a" d="M.804.436h6.428v2.368H.804z"/>
    </defs>
    <g fill="none" fill-rule="evenodd">
        <path fill="#FF4338" d="M84.036 84.214h-2.753a.75.75 0 0 1 0-1.5h2.753a.75.75 0 0 1 0 1.5M82.558 90.293h-2.49a.75.75 0 0 1 0-1.5h2.49a.75.75 0 0 1 0 1.5M79.138 96.37H76.42a.75.75 0 0 1 0-1.5h2.717a.75.75 0 0 1 0 1.5"/>
        <path fill="#231F20" d="M56.527 48.22a.75.75 0 0 1-.75-.75v-6.612a.75.75 0 0 1 1.5 0v6.613a.75.75 0 0 1-.75.75M33.998 56.423a.745.745 0 0 1-.574-.268l-4.635-5.522a.75.75 0 1 1 1.148-.965l4.635 5.523a.748.748 0 0 1-.574 1.232M44.536 50.327a.75.75 0 0 1-.705-.494l-.472-1.295a.751.751 0 0 1 1.41-.514l.472 1.297a.75.75 0 0 1-.705 1.006M26.167 65.745a.738.738 0 0 1-.374-.101l-3.935-2.271a.75.75 0 0 1 .75-1.3l3.935 2.273a.75.75 0 0 1-.376 1.399M22.005 77.185a.734.734 0 0 1-.131-.012l-1.812-.319a.75.75 0 0 1 .259-1.477l1.813.32a.749.749 0 1 1-.129 1.488M84.061 6.775a.75.75 0 0 1-.75-.75V.75a.75.75 0 0 1 1.5 0v5.275a.75.75 0 0 1-.75.75M94.306 8.574a.75.75 0 0 1-.705-1.006L95.954 1.1a.75.75 0 0 1 1.411.512L95.01 8.08a.75.75 0 0 1-.705.494M109.998 21.745a.748.748 0 0 1-.376-1.4l3.281-1.894a.75.75 0 1 1 .75 1.299l-3.281 1.894a.738.738 0 0 1-.374.1"/>
        <g transform="translate(112 28.714)">
            <mask id="b" fill="#fff">
                <use xlink:href="#a"/>
            </mask>
            <path fill="#231F20" d="M1.553 2.804a.749.749 0 0 1-.13-1.488l4.93-.868c.413-.074.797.2.868.608a.748.748 0 0 1-.608.868l-4.93.868a.734.734 0 0 1-.13.012" mask="url(#b)"/>
        </g>
        <path fill="#231F20" d="M103.308 13.782a.748.748 0 0 1-.574-1.231l1.005-1.199a.748.748 0 0 1 1.055-.091c.319.266.36.74.093 1.056l-1.005 1.197a.744.744 0 0 1-.574.268M55.458 126.714C24.878 126.714 0 101.836 0 71.257 0 40.677 24.878 15.8 55.458 15.8c4.765 0 9.496.605 14.061 1.799a.75.75 0 1 1-.379 1.45 54.132 54.132 0 0 0-13.682-1.75C25.705 17.3 1.5 41.506 1.5 71.258s24.205 53.957 53.958 53.957c29.752 0 53.957-24.205 53.957-53.957 0-9.161-2.338-18.211-6.76-26.17a.75.75 0 1 1 1.311-.728c4.546 8.18 6.949 17.482 6.949 26.898 0 30.579-24.878 55.457-55.457 55.457"/>
        <path fill="#231F20" d="M33.334 108.492a5.428 5.428 0 0 1-5.422-5.421 5.397 5.397 0 0 1 3.81-5.178.746.746 0 0 1 .938.494.749.749 0 0 1-.493.938 3.907 3.907 0 0 0-2.755 3.746 3.926 3.926 0 0 0 5.104 3.74.75.75 0 1 1 .453 1.43 5.4 5.4 0 0 1-1.635.251M77.663 108.524a5.39 5.39 0 0 1-1.512-.215.747.747 0 0 1-.51-.929.747.747 0 0 1 .928-.51 3.927 3.927 0 0 0 5.016-3.768c0-1.694-1.08-3.19-2.688-3.723a.75.75 0 0 1 .473-1.423 5.412 5.412 0 0 1 3.715 5.146 5.429 5.429 0 0 1-5.422 5.422"/>
        <path fill="#231F20" d="M79.138 99.407a.75.75 0 0 1-.227-.035l-.712-.221a86.882 86.882 0 0 0-1.174-.348.75.75 0 0 1 .416-1.442c.399.115.799.234 1.195.355l.729.226a.751.751 0 0 1-.227 1.465M31.943 99.354a.751.751 0 0 1-.224-1.466 78.034 78.034 0 0 1 4.134-1.17.744.744 0 0 1 .911.542.747.747 0 0 1-.542.911c-1.352.343-2.717.73-4.055 1.15a.762.762 0 0 1-.224.033M10.85 103.683a.751.751 0 0 1-.394-1.389 85.559 85.559 0 0 1 22.424-9.702.749.749 0 1 1 .393 1.447 84.105 84.105 0 0 0-22.031 9.533.747.747 0 0 1-.392.111M100.061 103.681a.747.747 0 0 1-.392-.11 84.106 84.106 0 0 0-19.546-8.817.75.75 0 1 1 .436-1.435 85.628 85.628 0 0 1 19.897 8.973.751.751 0 0 1-.395 1.39"/>
        <path fill="#FF4338" d="M47.123 105.626a.758.758 0 0 1-.242-.04 26.572 26.572 0 0 1-17.999-25.161c0-14.654 11.922-26.576 26.576-26.576 14.653 0 26.575 11.922 26.575 26.576a26.573 26.573 0 0 1-17.997 25.16.75.75 0 1 1-.484-1.42 25.073 25.073 0 0 0 16.981-23.74c0-13.827-11.249-25.076-25.075-25.076-13.827 0-25.076 11.249-25.076 25.076a25.072 25.072 0 0 0 16.983 23.74.75.75 0 0 1-.242 1.46"/>
        <path fill="#FF4338" d="M65.86 105.903a.75.75 0 0 1-.217-1.468c10.492-3.167 17.821-13.04 17.821-24.01 0-13.828-11.25-25.077-25.077-25.077h-2.929a.75.75 0 0 1 0-1.5h2.93c14.654 0 26.576 11.922 26.576 26.576 0 11.627-7.767 22.091-18.887 25.447a.746.746 0 0 1-.217.032"/>
        <path fill="#FF4338" d="M55.458 61.419c-10.479 0-19.006 8.526-19.006 19.006 0 10.479 8.527 19.005 19.006 19.005 10.479 0 19.005-8.526 19.005-19.005 0-10.48-8.526-19.006-19.005-19.006m0 39.51c-11.307 0-20.506-9.198-20.506-20.504 0-11.307 9.199-20.506 20.506-20.506s20.505 9.199 20.505 20.506c0 11.306-9.198 20.505-20.505 20.505"/>
        <path fill="#FF4338" d="M52.372 79.153a.75.75 0 0 1-.75-.75v-6.18l-.789.79a.75.75 0 0 1-1.061-1.06l2.07-2.07a.753.753 0 0 1 .817-.163c.28.117.463.39.463.694v7.99a.75.75 0 0 1-.75.75M58.331 71.164c-.767 0-1.391.623-1.391 1.39v3.71c0 .766.624 1.389 1.391 1.389h.143a1.39 1.39 0 0 0 1.389-1.39v-3.71a1.39 1.39 0 0 0-1.389-1.39h-.143zm.143 7.989h-.143a2.893 2.893 0 0 1-2.891-2.89v-3.71a2.894 2.894 0 0 1 2.891-2.89h.143a2.892 2.892 0 0 1 2.889 2.89v3.71a2.892 2.892 0 0 1-2.889 2.89z"/>
        <path fill="#231F20" d="M76.362 108.333a.749.749 0 0 1-.226-.035 68.522 68.522 0 0 0-20.678-3.168 68.54 68.54 0 0 0-20.493 3.109.75.75 0 1 1-.448-1.431 70.021 70.021 0 0 1 20.941-3.178c7.224 0 14.334 1.09 21.13 3.238a.75.75 0 0 1-.226 1.465"/>
        <path fill="#FF4338" d="M84.036 78.135h-2.753a.75.75 0 0 1 0-1.5h2.753a.75.75 0 0 1 0 1.5M82.335 72.056h-2.571a.75.75 0 0 1 0-1.5h2.57a.75.75 0 0 1 0 1.5M79.27 65.978h-2.797a.75.75 0 0 1 0-1.5h2.797a.75.75 0 0 1 0 1.5M85.733 14.147c-10.94 0-19.84 8.901-19.84 19.842 0 10.94 8.9 19.841 19.84 19.841s19.842-8.9 19.842-19.84c0-10.942-8.902-19.843-19.842-19.843m0 41.183c-11.768 0-21.34-9.574-21.34-21.34 0-11.769 9.572-21.343 21.34-21.343s21.342 9.574 21.342 21.342c0 11.767-9.574 21.341-21.342 21.341"/>
        <path fill="#FF4338" d="M85.733 19.238c-8.133 0-14.75 6.617-14.75 14.751 0 8.133 6.617 14.75 14.75 14.75 8.134 0 14.751-6.617 14.751-14.75 0-8.134-6.617-14.75-14.75-14.75m0 31c-8.96 0-16.25-7.29-16.25-16.25s7.29-16.25 16.25-16.25 16.25 7.29 16.25 16.25-7.29 16.25-16.25 16.25"/>
        <path fill="#FF4338" d="M85.733 55.33h-3.039c-11.768 0-21.34-9.573-21.34-21.341 0-11.767 9.572-21.342 21.34-21.342h3.04a.75.75 0 0 1 0 1.5h-3.04c-10.94 0-19.84 8.902-19.84 19.842s8.9 19.84 19.84 19.84h3.04a.75.75 0 0 1 0 1.5"/>
        <path fill="#FF4338" d="M84.02 33.205a.75.75 0 0 1-.75-.75V28.2l-.29.29a.75.75 0 0 1-1.06-1.06l1.57-1.571a.751.751 0 0 1 1.28.531v6.064a.75.75 0 0 1-.75.75M88.785 27.14a.876.876 0 0 0-.875.874v2.815c0 .483.393.875.875.875h.108a.874.874 0 0 0 .874-.875v-2.815a.874.874 0 0 0-.874-.874h-.108zm.108 6.064h-.108a2.377 2.377 0 0 1-2.375-2.375v-2.815a2.377 2.377 0 0 1 2.375-2.374h.108a2.377 2.377 0 0 1 2.374 2.374v2.815a2.377 2.377 0 0 1-2.374 2.375zM65.142 34.739h-3.038a.75.75 0 0 1 0-1.5h3.038a.75.75 0 0 1 0 1.5M66.054 28.66h-3.04a.75.75 0 0 1 0-1.5h3.04a.75.75 0 0 1 0 1.5M68.789 22.582h-2.716a.75.75 0 0 1 0-1.5h2.716a.75.75 0 0 1 0 1.5M66.054 40.817h-3.04a.75.75 0 0 1 0-1.5h3.04a.75.75 0 0 1 0 1.5M69.094 46.895h-3.04a.75.75 0 0 1 0-1.5h3.04a.75.75 0 0 1 0 1.5M79.789 37.294a.42.42 0 0 1 .12-.28c.08-.091.213-.137.401-.137.187 0 .321.043.401.128.08.086.12.182.12.289v2.966c0 .224.019.428.056.609.037.182.1.337.188.465a.853.853 0 0 0 .361.297c.153.069.346.104.582.104.229 0 .418-.033.569-.1a.853.853 0 0 0 .356-.288c.088-.126.149-.28.181-.461.031-.182.048-.391.048-.626v-2.966c0-.097.037-.19.112-.28.074-.091.211-.137.409-.137.187 0 .321.043.401.128.08.086.12.182.12.289v3.463c0 .32-.063.6-.189.838a1.814 1.814 0 0 1-.497.597c-.206.16-.44.28-.705.357a2.894 2.894 0 0 1-1.62 0 2.163 2.163 0 0 1-.709-.353 1.852 1.852 0 0 1-.509-.593 1.717 1.717 0 0 1-.196-.846v-3.463zM85.962 38.384c0 .123.037.23.112.32.075.092.167.172.277.242.109.069.224.127.344.176.12.048.229.093.325.136.24.107.449.214.626.32.175.108.32.223.436.346.115.123.197.262.249.416.05.155.073.332.068.529-.011.53-.176.956-.498 1.28-.32.323-.81.495-1.466.516a1.933 1.933 0 0 1-.678-.084 3.441 3.441 0 0 1-.55-.22 1.185 1.185 0 0 1-.332-.237.895.895 0 0 1-.18-.268.626.626 0 0 1-.052-.265.38.38 0 0 1 .068-.216c.075-.118.164-.183.269-.197a.432.432 0 0 1 .293.068l.252.173c.088.062.18.117.28.168.099.05.203.092.313.124.11.032.229.049.357.049a.937.937 0 0 0 .593-.217.754.754 0 0 0 .193-.261.838.838 0 0 0 .07-.356.632.632 0 0 0-.087-.337 1.06 1.06 0 0 0-.212-.253 1.278 1.278 0 0 0-.273-.18 2.263 2.263 0 0 0-.27-.112 6.642 6.642 0 0 1-.628-.261 2.127 2.127 0 0 1-.508-.333 1.426 1.426 0 0 1-.345-.457 1.406 1.406 0 0 1-.13-.625c0-.256.054-.482.157-.677.105-.195.242-.357.413-.485a1.84 1.84 0 0 1 .58-.29c.218-.063.439-.093.663-.087.25.005.484.045.698.12.214.076.39.168.533.28a.878.878 0 0 1 .288.366.41.41 0 0 1-.168.513.565.565 0 0 1-.177.072.433.433 0 0 1-.18.004.29.29 0 0 1-.144-.065 17.787 17.787 0 0 0-.184-.124 1.775 1.775 0 0 0-.469-.22.913.913 0 0 0-.27-.04.6.6 0 0 0-.271.06.702.702 0 0 0-.337.36.607.607 0 0 0-.048.229M90.002 41.71h.914c.876 0 1.315-.664 1.315-1.995 0-.305-.025-.577-.073-.817a1.543 1.543 0 0 0-.248-.606 1.13 1.13 0 0 0-.466-.373c-.192-.085-.435-.128-.73-.128h-.712v3.92zm.874-4.753c.416 0 .775.07 1.078.213.302.142.55.336.745.585.196.248.34.543.434.882.093.34.14.707.14 1.102 0 .422-.048.806-.145 1.15a2.451 2.451 0 0 1-.44.886 1.993 1.993 0 0 1-.738.57c-.294.134-.638.2-1.034.2h-1.523c-.188 0-.307-.03-.357-.092-.052-.061-.076-.151-.076-.268v-4.867c0-.118.023-.207.07-.268.05-.062.17-.093.363-.093h1.483zM45.91 84.045c0-.136.056-.268.17-.396.112-.128.301-.193.565-.193.264 0 .452.06.566.182.113.12.17.257.17.407v4.19c0 .318.026.605.08.86.052.258.14.476.265.658.125.18.295.32.51.419.215.099.488.147.821.147.325 0 .592-.046.804-.141.211-.095.38-.231.504-.408.125-.177.21-.395.255-.651.045-.257.067-.552.067-.884v-4.19c0-.136.053-.268.16-.396.105-.128.297-.193.577-.193.264 0 .453.06.566.182.113.12.17.257.17.407v4.893c0 .453-.089.847-.266 1.183a2.595 2.595 0 0 1-.702.844 2.977 2.977 0 0 1-.997.504 4.086 4.086 0 0 1-2.287 0 3.11 3.11 0 0 1-1.003-.498 2.633 2.633 0 0 1-.719-.84c-.185-.335-.277-.732-.277-1.193v-4.893zM54.629 85.585c0 .174.053.325.159.453.106.129.236.242.39.34.155.099.317.182.487.249.17.068.323.133.459.192.34.152.634.303.884.453.249.152.454.314.617.488.162.174.279.37.35.589.072.218.104.467.097.747-.015.748-.25 1.349-.702 1.806-.453.457-1.144.7-2.072.73a2.779 2.779 0 0 1-.957-.118 4.96 4.96 0 0 1-.776-.312 1.609 1.609 0 0 1-.47-.334 1.264 1.264 0 0 1-.255-.38.899.899 0 0 1-.073-.373.536.536 0 0 1 .095-.305c.107-.166.233-.26.38-.278a.602.602 0 0 1 .413.096c.114.076.233.157.357.244.125.087.257.166.396.237.14.073.287.13.443.176.154.045.322.069.504.069.15 0 .299-.027.447-.081.146-.052.277-.127.39-.226.114-.098.204-.221.272-.367.068-.148.102-.316.102-.505a.89.89 0 0 0-.125-.476 1.537 1.537 0 0 0-.3-.356 1.717 1.717 0 0 0-.385-.255 3.42 3.42 0 0 0-.38-.158 9.975 9.975 0 0 1-.89-.368 3.118 3.118 0 0 1-.717-.47 2.07 2.07 0 0 1-.488-.646 2.017 2.017 0 0 1-.18-.883c0-.363.073-.681.22-.957.148-.276.342-.504.583-.685.243-.182.516-.317.822-.408.305-.09.617-.132.934-.124.355.008.683.063.986.17.3.105.552.237.753.396.199.158.335.33.407.515a.577.577 0 0 1-.238.724.788.788 0 0 1-.25.103.68.68 0 0 1-.253.006.435.435 0 0 1-.205-.091 13.67 13.67 0 0 0-.26-.176 2.544 2.544 0 0 0-.662-.311 1.33 1.33 0 0 0-.38-.057.842.842 0 0 0-.385.085 1 1 0 0 0-.29.215.999.999 0 0 0-.186.295.843.843 0 0 0-.068.322M60.336 90.285h1.29c1.239 0 1.858-.94 1.858-2.82 0-.43-.034-.816-.101-1.155a2.176 2.176 0 0 0-.352-.855 1.577 1.577 0 0 0-.656-.526c-.272-.122-.616-.182-1.031-.182h-1.008v5.538zm1.234-6.716c.589 0 1.097.1 1.524.3.427.2.777.477 1.054.827.275.352.478.767.61 1.246.133.48.199.998.199 1.557 0 .597-.068 1.139-.204 1.625a3.464 3.464 0 0 1-.623 1.252 2.823 2.823 0 0 1-1.042.804c-.415.188-.902.283-1.461.283h-2.151c-.265 0-.433-.044-.504-.13-.073-.087-.108-.214-.108-.38v-6.874c0-.166.035-.292.102-.38.068-.086.238-.13.51-.13h2.094z"/>
    </g>
</svg>
