<svg xmlns="http://www.w3.org/2000/svg" width="26" height="24" viewBox="0 0 26 24">
    <path fill="none" fill-rule="evenodd" stroke="#333" d="M.595 8.438a1.11 1.11 0 0 1-.08-.267A1.487 1.487 0 0 1 .5 7.898l.001-.808C.746 3.374 3.781.419 7.375.502c2.266 0 4.374 1.154 5.625 3 1.25-1.846 3.359-3 5.625-3 3.688 0 6.63 2.889 6.875 6.698v.31c0 .33-.066.67-.159.945-.14.744-.404 1.513-.781 2.305-1.02 2.138-2.841 4.393-5.234 6.688a52.608 52.608 0 0 1-4.15 3.566c-.496.384-.956.728-1.37 1.027-.248.18-.427.305-.524.372l-.283.193-.282-.194a27.233 27.233 0 0 1-.528-.375 52.104 52.104 0 0 1-1.376-1.035 53.433 53.433 0 0 1-4.176-3.592c-2.355-2.26-4.16-4.478-5.198-6.58-.407-.823-.691-1.62-.844-2.392z"/>
</svg>
