<?xml version="1.0" encoding="UTF-8"?>
<svg width="30px" height="16px" viewBox="0 0 30 16" version="1.1" xmlns="http://www.w3.org/2000/svg" xmlns:xlink="http://www.w3.org/1999/xlink">
    <!-- Generator: Sketch 48.2 (47327) - http://www.bohemiancoding.com/sketch -->
    <title>kr</title>
    <desc>Created with Sketch.</desc>
    <defs>
        <rect id="path-1" x="0" y="0" width="30" height="16" rx="8"></rect>
        <rect id="path-3" x="0" y="0" width="30" height="16" rx="8"></rect>
        <filter x="-3.3%" y="-6.2%" width="106.7%" height="112.5%" filterUnits="objectBoundingBox" id="filter-4">
            <feGaussianBlur stdDeviation="1" in="SourceAlpha" result="shadowBlurInner1"></feGaussianBlur>
            <feOffset dx="0" dy="0" in="shadowBlurInner1" result="shadowOffsetInner1"></feOffset>
            <feComposite in="shadowOffsetInner1" in2="SourceAlpha" operator="arithmetic" k2="-1" k3="1" result="shadowInnerInner1"></feComposite>
            <feColorMatrix values="0 0 0 0 0   0 0 0 0 0   0 0 0 0 0  0 0 0 0.2 0" type="matrix" in="shadowInnerInner1"></feColorMatrix>
        </filter>
    </defs>
    <g id="Page-1" stroke="none" stroke-width="1" fill="none" fill-rule="evenodd">
        <g id="kr">
            <g id="Shape-+-Shape-+-Shape-+-Rectangle-Mask">
                <mask id="mask-2" fill="white">
                    <use xlink:href="#path-1"></use>
                </mask>
                <use id="Mask" fill="#FFFFFF" xlink:href="#path-1"></use>
                <g id="Group" mask="url(#mask-2)" fill-rule="nonzero">
                    <g transform="translate(7.000000, 2.000000)" id="Shape">
                        <path d="M7.77065925,5.83444349 C7.77065925,7.43042808 6.47685788,8.72420377 4.88092466,8.72420377 C3.28494007,8.72420377 1.99119007,7.4304024 1.99119007,5.83444349 C1.99119007,4.2384589 3.28496575,2.9447089 4.88092466,2.9447089 C6.47690925,2.9447089 7.77065925,4.23851027 7.77065925,5.83444349 Z" fill="#FFFFFF"></path>
                        <path d="M11.3958305,6.00214041 C11.3958305,8.08464897 9.72543664,9.77276541 7.66481164,9.77276541 C5.60418664,9.77276541 3.93376712,8.08467466 3.93376712,6.00214041 C3.93376712,3.91960616 5.60416096,2.23148973 7.66481164,2.23148973 C9.72546233,2.23148973 11.3958048,3.91963185 11.3958048,6.00214041 L11.3958305,6.00214041 Z" fill="#C70000"></path>
                        <path d="M0.0320976027,2.50616438 L2.18089897,0.0206335616 L2.69,0.460744863 L0.54119863,2.94630137 L0.0320976027,2.50616438 Z M0.735839041,3.11456336 L2.88464041,0.629032534 L3.39371575,1.06914384 L1.24491438,3.55467466 L0.735839041,3.11456336 Z" fill="#000000"></path>
                        <polygon fill="#000000" points="0.0320976027 2.50616438 2.18089897 0.0206335616 2.69 0.460744863 0.54119863 2.94630137"></polygon>
                        <path d="M0.0320976027,2.50616438 L2.18089897,0.0206335616 L2.69,0.460744863 L0.54119863,2.94630137 L0.0320976027,2.50616438 Z M1.45463185,3.7359589 L3.60343322,1.25042808 L4.11250856,1.69056507 L1.96370719,4.17609589 L1.45463185,3.7359589 Z" fill="#000000"></path>
                        <polygon fill="#000000" points="0.0320976027 2.50616438 2.18089897 0.0206335616 2.69 0.460744863 0.54119863 2.94630137"></polygon>
                        <path d="M0.0320976027,2.50616438 L2.18089897,0.0206335616 L2.69,0.460744863 L0.54119863,2.94630137 L0.0320976027,2.50616438 Z M13.1013613,0.0198116438 L15.233262,2.51985445 L14.7211815,2.95649829 L12.5892808,0.456481164 L13.1013613,0.0198116438 Z M11.6705565,1.23992295 L13.8024572,3.73996575 L13.2904024,4.17660959 L11.1585017,1.67659247 L11.6705565,1.23992295 Z" fill="#000000"></path>
                        <polygon fill="#FFFFFF" points="12.026113 2.67953767 14.045 0.937739726 14.4210531 1.37317637 12.2636216 3.31287671 12.026113 2.67951199"></polygon>
                        <path d="M14.5092808,8.81369007 L12.4438014,11.2750514 L11.9373973,10.8538185 L14.0029024,8.39248288 L14.5092808,8.81369007 Z M12.3934846,0.623458904 L14.5253853,3.12347603 L14.0133305,3.56014555 L11.8814298,1.06012842 L12.3934846,0.623458904 Z M15.2091182,9.39578767 L13.143613,11.857149 L12.6372346,11.4359418 L14.7027397,8.97458048 L15.2091182,9.39578767 Z M13.7942637,8.21892979 L11.7287586,10.6803168 L11.2223801,10.2590839 L13.2878596,7.7977226 L13.7942637,8.21892979 Z" fill="#000000"></path>
                        <path d="M3.9880137,5.33767123 C4.1059589,6.28734589 4.27817637,7.34559075 5.73970034,7.45552226 C6.28750856,7.4883476 7.35315068,7.32519692 7.71900685,5.83249144 C8.19900685,4.3985274 9.64473459,3.98625856 10.6285959,4.76366438 C11.1864212,5.12751712 11.340762,5.70542808 11.3807277,6.13927226 C11.3360616,7.5325 10.5363613,8.73858733 9.51027397,9.27642979 C8.33056507,9.97762842 6.69623288,9.99226884 5.26455479,8.92994007 C4.61934932,8.32454623 3.7178339,7.20853596 3.9880137,5.33764555 L3.9880137,5.33767123 Z" fill="#3D5897"></path>
                        <polygon fill="#FFFFFF" points="12.4976884 8.77714041 14.5199658 10.5150086 14.1451969 10.9515753 11.906601 9.10608733 12.4976884 8.77714041"></polygon>
                        <polygon fill="#000000" points="1.2529024 8.43314212 3.38480308 10.9331849 2.8727226 11.3698288 0.740821918 8.86981164"></polygon>
                        <polygon fill="#FFFFFF" points="0.885582192 10.4892979 2.90446918 8.7475 3.28052226 9.18293664 1.12309075 11.122637 0.885582192 10.4892723"></polygon>
                        <path d="M1.96075342,7.82952055 L4.09267979,10.3295377 L3.58059932,10.7661815 L1.44869863,8.26616438 L1.96075342,7.82952055 Z M0.529974315,9.04963185 L2.661875,11.549649 L2.14982021,11.9862928 L0.0178938356,9.48630137 L0.529974315,9.04963185 Z" fill="#000000"></path>
                    </g>
                </g>
            </g>
            <g id="Rectangle-5-Copy-4" fill="black" fill-opacity="1">
                <use filter="url(#filter-4)" xlink:href="#path-3"></use>
            </g>
        </g>
    </g>
</svg>